Coordinates
version=1
nRows=12
nColumns=46
inDegrees=yes

Units are S.I. units (second, meters, Newtons, ...)
Angles are in degrees.

endheader
time	pelvis_tilt	pelvis_list	pelvis_rotation	pelvis_tx	pelvis_ty	pelvis_tz	bb_angle	bb_tx	bb_ty	bb_tz	hip_flexion_r	hip_adduction_r	hip_rotation_r	knee_angle_r	knee_angle_r_beta	ankle_angle_r	subtalar_angle_r	mtp_angle_r	crank_angle_r	hip_flexion_l	hip_adduction_l	hip_rotation_l	knee_angle_l	knee_angle_l_beta	ankle_angle_l	subtalar_angle_l	mtp_angle_l	crank_angle_l	lumbar_extension	lumbar_bending	lumbar_rotation	arm_flex_r	arm_add_r	arm_rot_r	elbow_flex_r	pro_sup_r	wrist_flex_r	wrist_dev_r	arm_flex_l	arm_add_l	arm_rot_l	elbow_flex_l	pro_sup_l	wrist_flex_l	wrist_dev_l
      2.50000000	    -18.35960461	      5.03530131	      5.25855231	      0.15065901	      1.15989325	     -0.24580502	      0.00000000	      0.50000000	      0.00000000	      0.25000000	     43.33973593	    -10.71037151	     -6.66084315	     37.23500697	      0.64987347	      2.75259253	      1.84950285	      0.00000000	      0.00000000	     93.91161803	     -3.71697797	     -0.18203874	    110.95932995	      1.93660564	    -10.14539821	     -1.49094003	      0.00000000	      0.00000000	    -62.36541491	     -4.36392161	     -5.72159860	     89.74759940	    -16.79820908	     31.76685551	     54.18983349	     23.84368815	      0.00000000	      0.00000000	     89.60968947	     -8.82481309	     28.10941392	     57.72588382	     29.66745050	      0.00000000	      0.00000000
      2.50500000	    -18.51916564	      4.98734718	      5.63669579	      0.15087413	      1.16062842	     -0.24535667	      0.00000000	      0.50000000	      0.00000000	      0.25000000	     43.43596392	    -11.05517428	     -7.18602048	     38.31152082	      0.66866218	      2.36900682	      1.72029529	      0.00000000	      0.00000000	     94.29889515	     -3.44528683	     -0.26055330	    110.23802723	      1.92401654	     -9.37489338	     -1.35261544	      0.00000000	      0.00000000	    -62.45717425	     -4.33952653	     -5.85387104	     89.74841470	    -17.06619264	     31.65685337	     54.23199345	     23.86959552	      0.00000000	      0.00000000	     89.62413751	     -8.57909439	     27.95093677	     58.03391013	     29.68652139	      0.00000000	      0.00000000
      2.51000000	    -18.85958217	      5.04602142	      6.03488227	      0.15062109	      1.16091571	     -0.24522112	      0.00000000	      0.50000000	      0.00000000	      0.25000000	     43.91104705	    -11.59871586	     -7.77729527	     39.65440019	      0.69209985	      2.02066397	      1.62437527	      0.00000000	      0.00000000	     94.74465061	     -3.04061276	     -0.44044140	    109.34523233	      1.90843433	     -8.51957268	     -1.05031587	      0.00000000	      0.00000000	    -62.42656555	     -4.36727978	     -6.09248982	     89.74693132	    -17.43987855	     31.50257152	     54.37030519	     23.91423859	      0.00000000	      0.00000000	     89.63256947	     -8.31465954	     27.74992694	     58.44633195	     29.71737134	      0.00000000	      0.00000000
      2.51500000	    -19.19974012	      5.09129971	      6.45710804	      0.15038171	      1.16150510	     -0.24508203	      0.00000000	      0.50000000	      0.00000000	      0.25000000	     44.45300653	    -12.09573775	     -8.13525426	     41.06370790	      0.71669691	      1.70603356	      1.52305907	      0.00000000	      0.00000000	     95.02412920	     -2.60957707	     -0.59231420	    108.28870658	      1.88999447	     -7.53339545	     -0.53720659	      0.00000000	      0.00000000	    -62.53610680	     -4.36087746	     -6.29634200	     89.74074830	    -18.35731505	     31.55395089	     55.42955220	     24.27142114	      0.00000000	      0.00000000	     89.63877647	     -7.91357808	     27.06910341	     59.33801330	     29.62803679	      0.00000000	      0.00000000
      2.52000000	    -19.46025833	      5.07326733	      6.82037833	      0.15000642	      1.16191060	     -0.24518863	      0.00000000	      0.50000000	      0.00000000	      0.25000000	     45.12557442	    -12.49835692	     -8.31944720	     42.80829968	      0.74714578	      1.11376380	      1.02315631	      0.00000000	      0.00000000	     95.14559439	     -2.08311180	     -0.62015760	    107.19561869	      1.87091649	     -6.42313980	     -0.30614859	      0.00000000	      0.00000000	    -62.56067974	     -4.26413472	     -6.47750819	     89.74030388	    -18.70390315	     31.45549444	     55.63462331	     24.34319378	      0.00000000	      0.00000000	     89.65335154	     -7.77033387	     26.98022370	     59.71040256	     29.63201488	      0.00000000	      0.00000000
      2.52500000	    -19.73053280	      4.96772840	      7.18411721	      0.14958676	      1.16227319	     -0.24500510	      0.00000000	      0.50000000	      0.00000000	      0.25000000	     45.91451033	    -12.74789664	     -8.34589910	     44.67922365	      0.77979956	      0.50072771	      0.18772263	      0.00000000	      0.00000000	     95.15671678	     -1.70243091	     -0.60214604	    105.98702558	      1.84982256	     -5.11692687	      0.28649765	      0.00000000	      0.00000000	    -62.63794517	     -4.10572363	     -6.61430226	     89.73844398	    -19.25789910	     31.47833098	     56.40643590	     24.58787492	      0.00000000	      0.00000000	     89.66648783	     -7.88839156	     26.86981308	     60.55842642	     29.60861714	      0.00000000	      0.00000000
      2.53000000	    -19.92357093	      4.79022974	      7.58206604	      0.14881694	      1.16282560	     -0.24494870	      0.00000000	      0.50000000	      0.00000000	      0.25000000	     46.70667632	    -13.05353926	     -8.64338474	     46.63518232	      0.81393748	     -0.26380152	     -0.46512919	      0.00000000	      0.00000000	     94.98957783	     -1.25824156	     -0.55182080	    104.63288512	      1.82618835	     -3.92842050	      0.45860476	      0.00000000	      0.00000000	    -62.71773358	     -3.84078984	     -6.70188735	     89.74354104	    -19.50721831	     31.35020536	     56.60499281	     24.63937747	      0.00000000	      0.00000000	     89.68393568	     -7.86399585	     26.76626264	     60.94471107	     29.63095426	      0.00000000	      0.00000000
      2.53500000	    -20.13916343	      4.54716244	      7.93939404	      0.14843831	      1.16348109	     -0.24459698	      0.00000000	      0.50000000	      0.00000000	      0.25000000	     47.56221823	    -13.07596657	     -8.40845935	     48.58739999	      0.84801010	     -1.32832675	     -1.72233083	      0.00000000	      0.00000000	     94.65318732	     -0.90547110	     -0.36036684	    103.13940178	      1.80012215	     -2.37300806	      1.40526481	      0.00000000	      0.00000000	    -62.91999640	     -3.57602283	     -6.82642964	     89.74003911	    -19.91259549	     31.15826662	     57.52647100	     24.86379377	      0.00000000	      0.00000000	     89.69392700	     -8.05366553	     26.44740779	     62.01176059	     29.67096333	      0.00000000	      0.00000000
      2.54000000	    -20.48649669	      4.41487201	      8.25153350	      0.14746408	      1.16341061	     -0.24499104	      0.00000000	      0.50000000	      0.00000000	      0.25000000	     48.76267397	    -13.44021058	     -8.55020038	     50.77215072	      0.88614120	     -2.25803114	     -2.57138646	      0.00000000	      0.00000000	     94.35646859	     -0.41876649	     -0.27617198	    101.53762579	      1.77216588	     -0.78986602	      1.94417273	      0.00000000	      0.00000000	    -62.92020066	     -3.35622010	     -6.96884974	     89.73841688	    -20.34570249	     30.88350653	     58.06340719	     26.27573587	      0.00000000	      0.00000000	     89.70030602	     -8.19089751	     26.23638927	     62.73839167	     30.57167050	      0.00000000	      0.00000000
      2.54500000	    -20.71140008	      4.17029914	      8.61208509	      0.14661822	      1.16353943	     -0.24527637	      0.00000000	      0.50000000	      0.00000000	      0.25000000	     49.85847737	    -13.65369777	     -8.52103873	     52.98745219	      0.92480550	     -3.29294840	     -3.32849798	      0.00000000	      0.00000000	     93.81545572	      0.08238806	     -0.05457834	     99.78899724	      1.74164656	      0.76048236	      2.40289882	      0.00000000	      0.00000000	    -62.95904072	     -3.01450461	     -7.02344842	     89.74403108	    -20.61567837	     30.72722810	     58.40986879	     26.33321131	      0.00000000	      0.00000000	     89.71005630	     -8.18575046	     26.06394451	     63.25573469	     30.57674752	      0.00000000	      0.00000000
      2.55000000	    -20.90655616	      3.93864002	      8.78750271	      0.14594319	      1.16353391	     -0.24488249	      0.00000000	      0.50000000	      0.00000000	      0.25000000	     51.02670068	    -13.65162109	     -8.25467431	     55.24923947	      0.96428114	     -4.52605552	     -4.41110277	      0.00000000	      0.00000000	     93.09556342	      0.28997494	      0.16072475	     97.92946073	      1.70919152	      2.37366060	      3.09669925	      0.00000000	      0.00000000	    -63.14601217	     -2.87393560	     -7.02778107	     89.74403975	    -20.96476849	     30.46937881	     59.17860667	     26.46467482	      0.00000000	      0.00000000	     89.71167357	     -8.12695006	     25.59434163	     64.13423389	     30.57549247	      0.00000000	      0.00000000
      2.55500000	    -20.98577886	      3.57248525	      9.00330690	      0.14536117	      1.16327952	     -0.24490059	      0.00000000	      0.50000000	      0.00000000	      0.25000000	     52.10553988	    -13.63872437	     -8.15717453	     57.60939793	      1.00547367	     -5.41866660	     -5.08887650	      0.00000000	      0.00000000	     92.21956621	      0.52530619	      0.46988790	     96.03056350	      1.67604952	      3.98052979	      3.34144270	      0.00000000	      0.00000000	    -63.25013501	     -2.53936282	     -6.86672844	     89.74642058	    -21.20935460	     30.27739394	     59.55738622	     26.52580621	      0.00000000	      0.00000000	     89.72010617	     -8.15881882	     25.38593456	     64.66040010	     30.58908360	      0.00000000	      0.00000000
